<svg width="32" height="32" viewBox="0 0 32 32" fill="none" xmlns="http://www.w3.org/2000/svg">
<g filter="url(#filter0_d_876_181)">
<rect width="24" height="24" transform="translate(4)" fill="#0D0202"/>
<path fill-rule="evenodd" clip-rule="evenodd" d="M16 2C10.48 2 6 6.48 6 12C6 17.52 10.48 22 16 22C21.52 22 26 17.52 26 12C26 6.48 21.52 2 16 2ZM11.07 18.28C11.5 17.38 14.12 16.5 16 16.5C17.88 16.5 20.51 17.38 20.93 18.28C19.57 19.36 17.86 20 16 20C14.14 20 12.43 19.36 11.07 18.28ZM22.36 16.83C20.93 15.09 17.46 14.5 16 14.5C14.54 14.5 11.07 15.09 9.64 16.83C8.62 15.49 8 13.82 8 12C8 7.59 11.59 4 16 4C20.41 4 24 7.59 24 12C24 13.82 23.38 15.49 22.36 16.83V16.83ZM16 6C14.06 6 12.5 7.56 12.5 9.5C12.5 11.44 14.06 13 16 13C17.94 13 19.5 11.44 19.5 9.5C19.5 7.56 17.94 6 16 6ZM16 11C15.17 11 14.5 10.33 14.5 9.5C14.5 8.67 15.17 8 16 8C16.83 8 17.5 8.67 17.5 9.5C17.5 10.33 16.83 11 16 11Z" fill="white"/>
<mask id="mask0_876_181" style="mask-type:luminance" maskUnits="userSpaceOnUse" x="6" y="2" width="20" height="20">
<path fill-rule="evenodd" clip-rule="evenodd" d="M16 2C10.48 2 6 6.48 6 12C6 17.52 10.48 22 16 22C21.52 22 26 17.52 26 12C26 6.48 21.52 2 16 2ZM11.07 18.28C11.5 17.38 14.12 16.5 16 16.5C17.88 16.5 20.51 17.38 20.93 18.28C19.57 19.36 17.86 20 16 20C14.14 20 12.43 19.36 11.07 18.28ZM22.36 16.83C20.93 15.09 17.46 14.5 16 14.5C14.54 14.5 11.07 15.09 9.64 16.83C8.62 15.49 8 13.82 8 12C8 7.59 11.59 4 16 4C20.41 4 24 7.59 24 12C24 13.82 23.38 15.49 22.36 16.83V16.83ZM16 6C14.06 6 12.5 7.56 12.5 9.5C12.5 11.44 14.06 13 16 13C17.94 13 19.5 11.44 19.5 9.5C19.5 7.56 17.94 6 16 6ZM16 11C15.17 11 14.5 10.33 14.5 9.5C14.5 8.67 15.17 8 16 8C16.83 8 17.5 8.67 17.5 9.5C17.5 10.33 16.83 11 16 11Z" fill="white"/>
</mask>
<g mask="url(#mask0_876_181)">
</g>
</g>
<defs>
<filter id="filter0_d_876_181" x="0" y="0" width="32" height="32" filterUnits="userSpaceOnUse" color-interpolation-filters="sRGB">
<feFlood flood-opacity="0" result="BackgroundImageFix"/>
<feColorMatrix in="SourceAlpha" type="matrix" values="0 0 0 0 0 0 0 0 0 0 0 0 0 0 0 0 0 0 127 0" result="hardAlpha"/>
<feOffset dy="4"/>
<feGaussianBlur stdDeviation="2"/>
<feComposite in2="hardAlpha" operator="out"/>
<feColorMatrix type="matrix" values="0 0 0 0 0 0 0 0 0 0 0 0 0 0 0 0 0 0 0.25 0"/>
<feBlend mode="normal" in2="BackgroundImageFix" result="effect1_dropShadow_876_181"/>
<feBlend mode="normal" in="SourceGraphic" in2="effect1_dropShadow_876_181" result="shape"/>
</filter>
</defs>
</svg>
