<svg width="96" height="24" viewBox="0 0 96 24" fill="none" xmlns="http://www.w3.org/2000/svg">
<path d="M0 12.9927L26.9845 12.9927V9.9944L0 9.9944L0 12.9927Z" fill="#79CAA1"/>
<path d="M59.9657 11.9931C59.9657 18.6167 54.5962 23.9862 47.9726 23.9862C41.349 23.9862 35.9795 18.6167 35.9795 11.9931C35.9795 5.36949 41.349 0 47.9726 0C54.5962 0 59.9657 5.36949 59.9657 11.9931Z" fill="#FBD784"/>
<path fill-rule="evenodd" clip-rule="evenodd" d="M47.9726 20.476C52.6576 20.476 56.4555 16.6781 56.4555 11.9931C56.4555 7.30811 52.6576 3.51017 47.9726 3.51017C43.2876 3.51017 39.4897 7.30811 39.4897 11.9931C39.4897 16.6781 43.2876 20.476 47.9726 20.476ZM47.9726 23.9862C54.5962 23.9862 59.9657 18.6167 59.9657 11.9931C59.9657 5.36949 54.5962 0 47.9726 0C41.349 0 35.9795 5.36949 35.9795 11.9931C35.9795 18.6167 41.349 23.9862 47.9726 23.9862Z" fill="#79CAA1"/>
<path d="M46.5511 10.9282H47.5658C48.0777 10.9236 48.4822 10.7911 48.7792 10.5305C49.0809 10.27 49.2317 9.89296 49.2317 9.39934C49.2317 8.924 49.106 8.55608 48.8547 8.29555C48.6078 8.03046 48.2285 7.89792 47.7166 7.89792C47.2687 7.89792 46.9007 8.02818 46.6128 8.2887C46.3249 8.54465 46.1809 8.88058 46.1809 9.2965H44.5149C44.5149 8.7846 44.6498 8.31841 44.9194 7.89792C45.1937 7.47743 45.573 7.15063 46.0575 6.91754C46.5465 6.67987 47.0927 6.56104 47.696 6.56104C48.6924 6.56104 49.474 6.81241 50.0407 7.31517C50.612 7.81336 50.8977 8.50808 50.8977 9.39934C50.8977 9.84725 50.7537 10.27 50.4658 10.6677C50.1824 11.0607 49.8145 11.3578 49.362 11.5589C49.9104 11.7463 50.3264 12.0411 50.6097 12.4433C50.8977 12.8455 51.0417 13.3254 51.0417 13.883C51.0417 14.7789 50.7331 15.4919 50.1161 16.0221C49.5037 16.5522 48.697 16.8173 47.696 16.8173C46.7362 16.8173 45.9501 16.5614 45.3376 16.0495C44.7252 15.5376 44.4189 14.8566 44.4189 14.0064H46.0849C46.0849 14.4452 46.2312 14.8017 46.5237 15.0759C46.8208 15.3502 47.2184 15.4873 47.7166 15.4873C48.2331 15.4873 48.6398 15.3502 48.9369 15.0759C49.234 14.8017 49.3826 14.4041 49.3826 13.883C49.3826 13.3574 49.2272 12.9529 48.9164 12.6696C48.6056 12.3862 48.1439 12.2445 47.5315 12.2445H46.5511V10.9282Z" fill="#333333"/>
</svg>
