<svg width="138" height="24" viewBox="0 0 138 24" fill="none" xmlns="http://www.w3.org/2000/svg">
<path d="M0 12.9927L137.921 12.9927V9.9944L0 9.9944L0 12.9927Z" fill="#79CAA1"/>
<path d="M59.9657 11.9931C59.9657 18.6167 54.5962 23.9862 47.9726 23.9862C41.349 23.9862 35.9795 18.6167 35.9795 11.9931C35.9795 5.36949 41.349 0 47.9726 0C54.5962 0 59.9657 5.36949 59.9657 11.9931Z" fill="white"/>
<path fill-rule="evenodd" clip-rule="evenodd" d="M47.9726 20.476C52.6576 20.476 56.4555 16.6781 56.4555 11.9931C56.4555 7.30811 52.6576 3.51017 47.9726 3.51017C43.2876 3.51017 39.4897 7.30811 39.4897 11.9931C39.4897 16.6781 43.2876 20.476 47.9726 20.476ZM47.9726 23.9862C54.5962 23.9862 59.9657 18.6167 59.9657 11.9931C59.9657 5.36949 54.5962 0 47.9726 0C41.349 0 35.9795 5.36949 35.9795 11.9931C35.9795 18.6167 41.349 23.9862 47.9726 23.9862Z" fill="#79CAA1"/>
<path d="M50.2597 12.5371H51.5006V13.8739H50.2597V16.0952H48.5937V13.8739H44.2814L44.2334 12.8593L48.5388 6.11316H50.2597V12.5371ZM45.9816 12.5371H48.5937V8.36872L48.4703 8.58811L45.9816 12.5371Z" fill="#333333"/>
</svg>
