<svg width="96" height="24" viewBox="0 0 96 24" fill="none" xmlns="http://www.w3.org/2000/svg">
<path d="M0 12.9927L26.9845 12.9927V9.9944L0 9.9944L0 12.9927Z" fill="#79CAA1"/>
<path d="M59.9657 11.9931C59.9657 18.6167 54.5962 23.9862 47.9726 23.9862C41.349 23.9862 35.9795 18.6167 35.9795 11.9931C35.9795 5.36949 41.349 0 47.9726 0C54.5962 0 59.9657 5.36949 59.9657 11.9931Z" fill="white"/>
<path fill-rule="evenodd" clip-rule="evenodd" d="M47.9726 20.476C52.6576 20.476 56.4555 16.6781 56.4555 11.9931C56.4555 7.30811 52.6576 3.51017 47.9726 3.51017C43.2876 3.51017 39.4897 7.30811 39.4897 11.9931C39.4897 16.6781 43.2876 20.476 47.9726 20.476ZM47.9726 23.9862C54.5962 23.9862 59.9657 18.6167 59.9657 11.9931C59.9657 5.36949 54.5962 0 47.9726 0C41.349 0 35.9795 5.36949 35.9795 11.9931C35.9795 18.6167 41.349 23.9862 47.9726 23.9862Z" fill="#79CAA1"/>
<path d="M45.0702 11.7304L45.6118 6.69824H50.9731V8.13796H46.9967L46.7225 10.5238C47.1841 10.2587 47.7051 10.1261 48.2856 10.1261C49.2363 10.1261 49.9744 10.4301 50.5 11.038C51.0302 11.6459 51.2953 12.464 51.2953 13.4923C51.2953 14.507 51.0028 15.316 50.4178 15.9193C49.8327 16.518 49.0306 16.8174 48.0114 16.8174C47.0973 16.8174 46.3386 16.5592 45.7352 16.0427C45.1365 15.5217 44.812 14.8361 44.7617 13.986H46.3728C46.4368 14.4704 46.6105 14.8429 46.8939 15.1035C47.1772 15.3594 47.5475 15.4874 48.0045 15.4874C48.5164 15.4874 48.9141 15.3046 49.1974 14.9389C49.4854 14.5733 49.6293 14.0751 49.6293 13.4444C49.6293 12.8365 49.4717 12.3566 49.1563 12.0046C48.8409 11.6481 48.4067 11.4699 47.8537 11.4699C47.552 11.4699 47.2961 11.511 47.0858 11.5933C46.8756 11.671 46.6471 11.8264 46.4003 12.0595L45.0702 11.7304Z" fill="#333333"/>
</svg>
