<svg width="96" height="24" viewBox="0 0 96 24" fill="none" xmlns="http://www.w3.org/2000/svg">
<path d="M0 12.9927L95.9447 12.9927V9.9944L0 9.9944L0 12.9927Z" fill="url(#paint0_linear_863_298)"/>
<path d="M59.9657 11.9931C59.9657 18.6167 54.5962 23.9862 47.9726 23.9862C41.349 23.9862 35.9795 18.6167 35.9795 11.9931C35.9795 5.36949 41.349 0 47.9726 0C54.5962 0 59.9657 5.36949 59.9657 11.9931Z" fill="white"/>
<path fill-rule="evenodd" clip-rule="evenodd" d="M47.9726 18.9891C51.8364 18.9891 54.9686 15.8569 54.9686 11.9931C54.9686 8.12932 51.8364 4.99712 47.9726 4.99712C44.1088 4.99712 40.9766 8.12932 40.9766 11.9931C40.9766 15.8569 44.1088 18.9891 47.9726 18.9891ZM47.9726 23.9862C54.5962 23.9862 59.9657 18.6167 59.9657 11.9931C59.9657 5.36949 54.5962 0 47.9726 0C41.349 0 35.9795 5.36949 35.9795 11.9931C35.9795 18.6167 41.349 23.9862 47.9726 23.9862Z" fill="#79CAA1"/>
<path d="M49.1359 16.6803H47.4768V8.66584L45.0293 9.50225V8.0968L48.9234 6.66394H49.1359V16.6803Z" fill="#333333"/>
<defs>
<linearGradient id="paint0_linear_863_298" x1="47.7325" y1="9.9944" x2="47.9724" y2="9.99439" gradientUnits="userSpaceOnUse">
<stop offset="0.90226" stop-color="#DFDFDF" stop-opacity="0"/>
<stop offset="0.90236" stop-color="#1BC47D"/>
<stop offset="0.935417" stop-color="#00D2F5"/>
<stop offset="0.982292" stop-color="#79CAA1"/>
</linearGradient>
</defs>
</svg>
