<svg width="216" height="24" viewBox="0 0 216 24" fill="none" xmlns="http://www.w3.org/2000/svg">
<path d="M0 12.9927L215.876 12.9927V9.9944L0 9.9944L0 12.9927Z" fill="url(#paint0_linear_863_469)"/>
<path d="M59.9657 11.9931C59.9657 18.6167 54.5962 23.9862 47.9726 23.9862C41.349 23.9862 35.9795 18.6167 35.9795 11.9931C35.9795 5.36949 41.349 0 47.9726 0C54.5962 0 59.9657 5.36949 59.9657 11.9931Z" fill="white"/>
<path fill-rule="evenodd" clip-rule="evenodd" d="M47.9726 20.476C52.6576 20.476 56.4555 16.6781 56.4555 11.9931C56.4555 7.30811 52.6576 3.51017 47.9726 3.51017C43.2876 3.51017 39.4897 7.30811 39.4897 11.9931C39.4897 16.6781 43.2876 20.476 47.9726 20.476ZM47.9726 23.9862C54.5962 23.9862 59.9657 18.6167 59.9657 11.9931C59.9657 5.36949 54.5962 0 47.9726 0C41.349 0 35.9795 5.36949 35.9795 11.9931C35.9795 18.6167 41.349 23.9862 47.9726 23.9862Z" fill="#79CAA1"/>
<path d="M51.3227 14.7789V16.0952H44.6314V14.964L47.8811 11.4196C48.2376 11.0174 48.5187 10.67 48.7243 10.3775C48.93 10.085 49.074 9.82218 49.1562 9.58909C49.2431 9.35142 49.2865 9.12061 49.2865 8.89665C49.2865 8.58128 49.2271 8.30476 49.1083 8.0671C48.994 7.82486 48.8249 7.63518 48.6009 7.49806C48.377 7.35638 48.105 7.28553 47.7851 7.28553C47.4149 7.28553 47.1041 7.36552 46.8527 7.52549C46.6013 7.68546 46.4116 7.90713 46.2837 8.1905C46.1557 8.4693 46.0917 8.78924 46.0917 9.15031H44.4395C44.4395 8.56985 44.572 8.03967 44.8371 7.55977C45.1022 7.07529 45.4861 6.69136 45.9889 6.40799C46.4916 6.12005 47.0972 5.97607 47.8057 5.97607C48.473 5.97607 49.0397 6.08805 49.5059 6.31201C49.9721 6.53597 50.3263 6.85362 50.5685 7.26497C50.8154 7.67631 50.9388 8.16308 50.9388 8.72525C50.9388 9.03605 50.8885 9.34456 50.7879 9.65079C50.6874 9.95701 50.5434 10.2632 50.356 10.5695C50.1732 10.8711 49.9561 11.1751 49.7047 11.4813C49.4533 11.7829 49.1768 12.0892 48.8752 12.4L46.7156 14.7789H51.3227Z" fill="black"/>
<defs>
<linearGradient id="paint0_linear_863_469" x1="109.287" y1="9.9944" x2="107.938" y2="9.99458" gradientUnits="userSpaceOnUse">
<stop offset="0.871109" stop-color="#79CAA1"/>
<stop offset="0.871209" stop-color="#00D2F5"/>
<stop offset="0.919792" stop-color="#FCC822"/>
<stop offset="0.992708" stop-color="#79CAA1"/>
</linearGradient>
</defs>
</svg>
