<svg width="504" height="379" viewBox="0 0 504 379" fill="none" xmlns="http://www.w3.org/2000/svg">
<path fill-rule="evenodd" clip-rule="evenodd" d="M502.155 378.063C502.155 378.064 502.155 378.065 500.681 377.86C499.993 377.764 499.626 377.713 499.431 377.686C499.208 377.655 499.208 377.655 499.208 377.654L499.208 377.653L499.209 377.646L499.213 377.616C499.217 377.589 499.223 377.547 499.231 377.492C499.247 377.381 499.27 377.214 499.299 376.994C499.358 376.553 499.44 375.902 499.536 375.061C499.728 373.38 499.973 370.945 500.183 367.943C500.602 361.935 500.881 353.668 500.319 344.626C499.189 326.438 494.68 305.54 481.554 293.323C468.769 281.424 447.661 277.622 429.414 276.887C420.342 276.522 412.081 276.919 406.087 277.407C403.092 277.651 400.666 277.918 398.992 278.123C398.155 278.226 397.506 278.313 397.068 278.375C396.85 278.405 396.683 278.429 396.573 278.446L396.449 278.464L396.44 278.466L396.41 278.472C396.369 278.48 396.309 278.491 396.23 278.506C396.073 278.536 395.84 278.58 395.535 278.636C394.925 278.748 394.028 278.908 392.872 279.101C390.56 279.488 387.212 280.01 383.056 280.55C374.745 281.63 363.194 282.785 350.228 283.087C324.37 283.689 292.583 280.906 269.746 267.079C250.186 255.236 242.182 240.234 240.34 223.388C238.513 206.681 242.757 188.201 247.448 169.366C247.771 168.069 248.096 166.77 248.421 165.47C257.619 128.716 267.104 90.8155 238.855 59.211C206.045 22.5037 146.69 9.27373 95.1373 5.31721C69.4206 3.34355 45.7663 3.68564 28.5388 4.52192C19.9266 4.94 12.9244 5.48139 8.07827 5.91787C5.65531 6.13611 3.77166 6.32812 2.49551 6.46534C1.85744 6.53394 1.37127 6.58883 1.04556 6.62648C0.882724 6.64532 0.759976 6.65983 0.678389 6.66954L0.58706 6.68052L0.559594 6.68387C0.558649 6.68402 0.558342 6.68406 0.369711 5.25963C0.181069 3.8352 0.182112 3.83513 0.183759 3.83489L0.215465 3.83101L0.312515 3.81934C0.397935 3.80915 0.524571 3.7942 0.69137 3.77492C1.02497 3.73636 1.51923 3.68054 2.16567 3.61107C3.45845 3.47204 5.35983 3.27827 7.80147 3.05836C12.6845 2.61852 19.7295 2.07398 28.3891 1.65358C45.7054 0.812972 69.494 0.468132 95.3735 2.45429C147.013 6.41751 207.465 19.6944 241.11 57.3356C270.38 90.0824 260.529 129.384 251.415 165.748C251.056 167.183 250.698 168.612 250.343 170.036C245.632 188.952 241.537 206.952 243.301 223.087C245.05 239.083 252.567 253.287 271.329 264.647C293.387 278.002 324.419 280.815 350.156 280.216C362.987 279.917 374.426 278.773 382.658 277.704C386.773 277.169 390.084 276.653 392.363 276.272C393.502 276.081 394.383 275.924 394.978 275.815C395.276 275.76 395.502 275.718 395.652 275.689C395.727 275.675 395.784 275.664 395.821 275.656L395.872 275.646L395.874 275.646C395.875 275.646 395.875 275.646 396.123 276.81L395.874 275.646L395.906 275.64L395.937 275.635L396.174 277.052C395.937 275.635 395.937 275.635 395.938 275.635L395.941 275.634L395.951 275.633L395.986 275.627C396.017 275.623 396.062 275.616 396.121 275.607C396.239 275.59 396.414 275.564 396.641 275.532C397.095 275.469 397.761 275.379 398.616 275.274C400.327 275.065 402.794 274.793 405.837 274.545C411.918 274.05 420.308 273.646 429.538 274.018C447.894 274.757 469.993 278.573 483.621 291.257C497.616 304.282 502.155 326.169 503.291 344.455C503.862 353.65 503.579 362.043 503.153 368.136C502.94 371.183 502.692 373.659 502.496 375.375C502.398 376.234 502.313 376.902 502.253 377.358C502.222 377.586 502.198 377.761 502.181 377.88C502.173 377.939 502.166 377.985 502.162 378.016L502.157 378.051L502.155 378.063Z" fill="url(#paint0_linear_863_385)"/>
<defs>
<linearGradient id="paint0_linear_863_385" x1="-0.559427" y1="11.1782" x2="549.056" y2="438.231" gradientUnits="userSpaceOnUse">
<stop stop-color="#69E6A6"/>
<stop offset="1" stop-color="#79CAA1"/>
</linearGradient>
</defs>
</svg>
